<svg xmlns="http://www.w3.org/2000/svg" viewBox="0 0 128 88" width="128" height="88"><rect width="128" height="88" fill="#fbfaf6"/><ellipse cx="34" cy="52" rx="17" ry="28" fill="none" stroke="#1b1e27" stroke-width="1.8"/><ellipse cx="94" cy="52" rx="17" ry="28" fill="none" stroke="#1b1e27" stroke-width="1.8"/><path d="M38 36L81 40M38 52L81 42M38 68L81 66" fill="none" stroke="#c0352f" stroke-width="1.8" stroke-linecap="round"/><path d="M87 40.6L80.6 43.2L81.2 37.2ZM87 40.6L81.8 45.4L80.4 39.5ZM87 66.4L81.4 69.9L80.8 63.9Z" fill="#c0352f"/><circle cx="34" cy="36" r="2.6" fill="#1b1e27"/><circle cx="34" cy="52" r="2.6" fill="#1b1e27"/><circle cx="34" cy="68" r="2.6" fill="#1b1e27"/><circle cx="91" cy="40" r="2.6" fill="#1b1e27"/><circle cx="93" cy="54" r="2.6" fill="#1b1e27"/><circle cx="91" cy="67" r="2.6" fill="#1b1e27"/><g transform="translate(39.87 17)"><path d="M0.76 -5.45L0.76 -5.45Q0.76 -5.56 0.85 -5.63Q0.94 -5.7 1.12 -5.7L1.12 -5.7L1.91 -5.7L2.22 -6.97Q2.48 -8.09 3.08 -8.68Q3.69 -9.28 4.7 -9.28L4.7 -9.28Q5.28 -9.28 5.55 -9.05Q5.82 -8.83 5.82 -8.53L5.82 -8.53Q5.82 -8.23 5.65 -8.04Q5.47 -7.85 5.17 -7.85L5.17 -7.85Q4.97 -7.85 4.8 -7.93Q4.63 -8.02 4.48 -8.13Q4.33 -8.24 4.17 -8.33Q4.01 -8.41 3.84 -8.41L3.84 -8.41Q3.52 -8.41 3.31 -8.2Q3.1 -7.98 3.02 -7.63L3.02 -7.63Q2.98 -7.42 3.01 -7.17Q3.05 -6.92 3.11 -6.66Q3.18 -6.39 3.2 -6.12L3.2 -6.12Q3.22 -5.9 3.19 -5.69L3.19 -5.69L4.3 -5.69Q4.47 -5.69 4.56 -5.64Q4.65 -5.59 4.65 -5.46L4.65 -5.46Q4.65 -5.35 4.57 -5.26Q4.49 -5.17 4.35 -5.12Q4.21 -5.06 4.02 -5.06L4.02 -5.06L3.02 -5.06L1.54 0.4Q1.49 0.59 1.46 0.74Q1.44 0.89 1.44 1.02L1.44 1.02Q1.44 1.18 1.51 1.29Q1.59 1.39 1.67 1.49Q1.75 1.58 1.75 1.72L1.75 1.72Q1.75 1.9 1.56 2.06Q1.38 2.22 1.08 2.32Q0.79 2.42 0.46 2.42L0.46 2.42Q0.07 2.42 -0.05 2.14Q-0.16 1.85 0 1.27L0 1.27L1.6 -4.38Q1.71 -4.75 1.61 -4.92Q1.51 -5.09 1.08 -5.14L1.08 -5.14Q0.88 -5.21 0.82 -5.29Q0.76 -5.36 0.76 -5.45M7.82 0.1L7.82 0.1Q7.43 0.1 7.22 -0.11Q7.01 -0.32 7.05 -0.64L7.05 -0.64Q7.08 -0.9 7.23 -1.11Q7.39 -1.31 7.65 -1.44Q7.92 -1.57 8.25 -1.57L8.25 -1.57Q8.65 -1.57 8.84 -1.35Q9.03 -1.12 8.99 -0.79L8.99 -0.79Q8.97 -0.55 8.81 -0.35Q8.66 -0.14 8.4 -0.02Q8.14 0.1 7.82 0.1M8.81 -3.92L8.81 -3.92Q8.42 -3.92 8.21 -4.13Q8 -4.35 8.03 -4.67L8.03 -4.67Q8.07 -4.92 8.22 -5.13Q8.38 -5.34 8.64 -5.46Q8.91 -5.59 9.24 -5.59L9.24 -5.59Q9.64 -5.59 9.83 -5.37Q10.02 -5.15 9.98 -4.82L9.98 -4.82Q9.96 -4.58 9.8 -4.37Q9.65 -4.17 9.39 -4.04Q9.13 -3.92 8.81 -3.92M15.55 -2.99L14.7 -1.59Q14.46 -1.17 14.51 -0.91Q14.56 -0.64 14.82 -0.57L14.82 -0.57L15.17 -0.5Q15.29 -0.47 15.34 -0.4Q15.39 -0.34 15.39 -0.27L15.39 -0.27Q15.39 -0.14 15.29 -0.07Q15.2 0 15.03 0L15.03 0L13.06 0Q12.88 0 12.79 -0.06Q12.69 -0.13 12.69 -0.25L12.69 -0.25Q12.69 -0.36 12.78 -0.44Q12.86 -0.51 13.06 -0.6L13.06 -0.6Q13.29 -0.67 13.54 -0.93Q13.79 -1.2 14.03 -1.64L14.03 -1.64L17.43 -7.16Q18.17 -8.23 18.88 -8.73Q19.6 -9.23 20.32 -9.23L20.32 -9.23Q20.57 -9.23 20.68 -9.16Q20.79 -9.08 20.79 -8.97L20.79 -8.97Q20.79 -8.88 20.74 -8.82Q20.68 -8.76 20.57 -8.71L20.57 -8.71Q20.31 -8.65 20.17 -8.45Q20.03 -8.25 20.02 -7.87L20.02 -7.87Q20.02 -7.64 20.01 -7.21Q20 -6.79 19.99 -6.24Q19.98 -5.69 19.97 -5.08Q19.96 -4.47 19.95 -3.87Q19.94 -3.27 19.93 -2.73Q19.92 -2.2 19.92 -1.79L19.92 -1.79L19.92 -1.19Q19.92 -0.99 19.97 -0.86Q20.02 -0.73 20.15 -0.65Q20.27 -0.57 20.49 -0.49L20.49 -0.49Q20.69 -0.42 20.69 -0.25L20.69 -0.25Q20.69 -0.14 20.6 -0.07Q20.51 0 20.34 0L20.34 0L17.7 0Q17.56 0 17.49 -0.07Q17.42 -0.14 17.42 -0.23L17.42 -0.23Q17.42 -0.32 17.49 -0.39Q17.56 -0.45 17.68 -0.5L17.68 -0.5L18.13 -0.6Q18.33 -0.65 18.43 -0.8Q18.53 -0.94 18.53 -1.19L18.53 -1.19Q18.54 -1.42 18.55 -1.85Q18.56 -2.28 18.57 -2.82L18.57 -2.82Q18.57 -2.91 18.58 -2.99L18.58 -2.99L15.55 -2.99M15.83 -3.44L18.58 -3.44Q18.59 -3.71 18.6 -3.98L18.6 -3.98Q18.62 -4.59 18.63 -5.21Q18.64 -5.83 18.66 -6.39Q18.67 -6.96 18.67 -7.41L18.67 -7.41Q18.67 -7.62 18.68 -7.8L18.68 -7.8Q18.53 -7.67 18.36 -7.46L18.36 -7.46Q18.15 -7.23 17.89 -6.86L17.89 -6.86L15.83 -3.44M24.94 -2.99Q24.76 -3.08 24.76 -3.25Q24.76 -3.42 24.94 -3.51L24.94 -3.51L34.89 -3.51Q33.96 -4.2 33.46 -5.17L33.46 -5.17Q33.13 -5.8 33.03 -6.41L33.03 -6.41Q33.03 -6.43 33.02 -6.46Q33.01 -6.49 33.01 -6.5L33.01 -6.5Q33.01 -6.64 33.27 -6.64L33.27 -6.64Q33.43 -6.64 33.48 -6.61Q33.52 -6.58 33.55 -6.46L33.55 -6.46Q33.59 -6.2 33.69 -5.93L33.69 -5.93Q33.98 -5.06 34.64 -4.37Q35.3 -3.69 36.19 -3.39L36.19 -3.39Q36.3 -3.35 36.3 -3.25Q36.3 -3.15 36.19 -3.11L36.19 -3.11Q35.3 -2.81 34.64 -2.13Q33.98 -1.44 33.69 -0.57L33.69 -0.57Q33.6 -0.3 33.55 -0.05L33.55 -0.05Q33.52 0.08 33.48 0.11Q33.43 0.14 33.27 0.14L33.27 0.14Q33 0.14 33 0L33 0Q33 -0.04 33.08 -0.32L33.08 -0.32Q33.48 -1.95 34.89 -2.99L34.89 -2.99L24.94 -2.99M42.33 -9.1L42.33 -9.1L45.27 -9.1Q46.83 -9.1 47.53 -8.47Q48.24 -7.85 48.11 -6.74L48.11 -6.74Q48.02 -6.01 47.57 -5.44Q47.12 -4.88 46.39 -4.56L46.39 -4.56Q45.96 -4.37 45.45 -4.3L45.45 -4.3Q45.97 -4.23 46.36 -4.08L46.36 -4.08Q47 -3.82 47.27 -3.36Q47.55 -2.89 47.46 -2.26L47.46 -2.26Q47.33 -1.22 46.33 -0.61Q45.34 0 43.5 0L43.5 0L39.98 0Q39.79 0 39.72 -0.06Q39.65 -0.13 39.65 -0.23L39.65 -0.23Q39.65 -0.32 39.75 -0.39Q39.85 -0.45 40.02 -0.49L40.02 -0.49L40.38 -0.57Q40.59 -0.62 40.71 -0.72Q40.82 -0.83 40.87 -1.01L40.87 -1.01Q41.02 -1.46 41.17 -2Q41.33 -2.54 41.5 -3.14Q41.67 -3.73 41.82 -4.33Q41.98 -4.93 42.13 -5.49Q42.27 -6.05 42.39 -6.55Q42.5 -7.04 42.58 -7.41Q42.67 -7.79 42.71 -8L42.71 -8Q42.76 -8.25 42.72 -8.36Q42.69 -8.48 42.53 -8.53L42.53 -8.53L42.13 -8.6Q42 -8.64 41.94 -8.69Q41.87 -8.74 41.87 -8.81L41.87 -8.81Q41.87 -8.94 41.99 -9.02Q42.1 -9.1 42.33 -9.1M44.13 -7.98L44.13 -7.98Q44.01 -7.51 43.84 -6.91Q43.68 -6.31 43.5 -5.65L43.5 -5.65Q43.34 -5.05 43.17 -4.44L43.17 -4.44L44.21 -4.44Q44.88 -4.44 45.41 -4.73Q45.94 -5.02 46.29 -5.56Q46.64 -6.1 46.73 -6.82L46.73 -6.82Q46.86 -7.7 46.42 -8.16Q45.98 -8.63 45.15 -8.63L45.15 -8.63Q44.66 -8.63 44.44 -8.47Q44.22 -8.32 44.13 -7.98M44.36 -4.02L43.06 -4.02Q42.93 -3.53 42.82 -3.06L42.82 -3.06Q42.65 -2.45 42.53 -1.95Q42.41 -1.45 42.35 -1.11L42.35 -1.11Q42.3 -0.9 42.39 -0.76Q42.49 -0.61 42.76 -0.54Q43.04 -0.47 43.49 -0.47L43.49 -0.47Q44.57 -0.47 45.23 -0.95Q45.9 -1.43 46.03 -2.31L46.03 -2.31Q46.16 -3.13 45.71 -3.58Q45.27 -4.02 44.36 -4.02L44.36 -4.02" fill="#1b1e27"/></g></svg>
